<?xml version="1.0" encoding="utf-8" standalone="no"?>
<!DOCTYPE svg PUBLIC "-//W3C//DTD SVG 1.1//EN"
  "http://www.w3.org/Graphics/SVG/1.1/DTD/svg11.dtd">
<svg xmlns:xlink="http://www.w3.org/1999/xlink" width="230.0875pt" height="122.678438pt" viewBox="0 0 230.0875 122.678438" xmlns="http://www.w3.org/2000/svg" version="1.1">
 <metadata>
  <rdf:RDF xmlns:dc="http://purl.org/dc/elements/1.1/" xmlns:cc="http://creativecommons.org/ns#" xmlns:rdf="http://www.w3.org/1999/02/22-rdf-syntax-ns#">
   <cc:Work>
    <dc:type rdf:resource="http://purl.org/dc/dcmitype/StillImage"/>
    <dc:date>2023-11-28T16:20:51.041672</dc:date>
    <dc:format>image/svg+xml</dc:format>
    <dc:creator>
     <cc:Agent>
      <dc:title>Matplotlib v3.7.2, https://matplotlib.org/</dc:title>
     </cc:Agent>
    </dc:creator>
   </cc:Work>
  </rdf:RDF>
 </metadata>
 <defs>
  <style type="text/css">*{stroke-linejoin: round; stroke-linecap: butt}</style>
 </defs>
 <g id="figure_1">
  <g id="patch_1">
   <path d="M 0 122.678438 
L 230.0875 122.678438 
L 230.0875 0 
L 0 0 
z
" style="fill: #ffffff"/>
  </g>
  <g id="axes_1">
   <g id="patch_2">
    <path d="M 44.267187 99.333125 
L 127.967187 99.333125 
L 127.967187 16.173125 
L 44.267187 16.173125 
z
" style="fill: #ffffff"/>
   </g>
   <g id="patch_3">
    <path d="M 48.071733 99.333125 
L 54.989088 99.333125 
L 54.989088 35.484667 
L 48.071733 35.484667 
z
" clip-path="url(#pcf5175993b)" style="fill: #4daf4a"/>
   </g>
   <g id="patch_4">
    <path d="M 75.741154 99.333125 
L 82.65851 99.333125 
L 82.65851 66.885548 
L 75.741154 66.885548 
z
" clip-path="url(#pcf5175993b)" style="fill: #4daf4a"/>
   </g>
   <g id="patch_5">
    <path d="M 103.410576 99.333125 
L 110.327931 99.333125 
L 110.327931 21.179821 
L 103.410576 21.179821 
z
" clip-path="url(#pcf5175993b)" style="fill: #4daf4a"/>
   </g>
   <g id="patch_6">
    <path d="M 54.989088 99.333125 
L 61.906444 99.333125 
L 61.906444 35.310218 
L 54.989088 35.310218 
z
" clip-path="url(#pcf5175993b)" style="fill: #ff7f00"/>
   </g>
   <g id="patch_7">
    <path d="M 82.65851 99.333125 
L 89.575865 99.333125 
L 89.575865 66.536649 
L 82.65851 66.536649 
z
" clip-path="url(#pcf5175993b)" style="fill: #ff7f00"/>
   </g>
   <g id="patch_8">
    <path d="M 110.327931 99.333125 
L 117.245287 99.333125 
L 117.245287 21.703169 
L 110.327931 21.703169 
z
" clip-path="url(#pcf5175993b)" style="fill: #ff7f00"/>
   </g>
   <g id="patch_9">
    <path d="M 61.906444 99.333125 
L 68.823799 99.333125 
L 68.823799 35.135768 
L 61.906444 35.135768 
z
" clip-path="url(#pcf5175993b)" style="fill: #377eb8"/>
   </g>
   <g id="patch_10">
    <path d="M 89.575865 99.333125 
L 96.493221 99.333125 
L 96.493221 68.281143 
L 89.575865 68.281143 
z
" clip-path="url(#pcf5175993b)" style="fill: #377eb8"/>
   </g>
   <g id="patch_11">
    <path d="M 117.245287 99.333125 
L 124.162642 99.333125 
L 124.162642 20.133125 
L 117.245287 20.133125 
z
" clip-path="url(#pcf5175993b)" style="fill: #377eb8"/>
   </g>
   <g id="matplotlib.axis_1">
    <g id="xtick_1">
     <g id="line2d_1">
      <defs>
       <path id="me78714dfd3" d="M 0 0 
L 0 3.5 
" style="stroke: #000000; stroke-width: 1.5"/>
      </defs>
      <g>
       <use xlink:href="#me78714dfd3" x="58.447766" y="99.333125" style="stroke: #000000; stroke-width: 1.5"/>
      </g>
     </g>
     <g id="text_1">
      <text style="font: 10px 'Arial', sans-serif, serif; text-anchor: middle" x="58.447766" y="113.490938" transform="rotate(-0 58.447766 113.490938)">HZ</text>
     </g>
    </g>
    <g id="xtick_2">
     <g id="line2d_2">
      <g>
       <use xlink:href="#me78714dfd3" x="86.117187" y="99.333125" style="stroke: #000000; stroke-width: 1.5"/>
      </g>
     </g>
     <g id="text_2">
      <text style="font: 10px 'Arial', sans-serif, serif; text-anchor: middle" x="86.117187" y="113.490938" transform="rotate(-0 86.117187 113.490938)">PZ</text>
     </g>
    </g>
    <g id="xtick_3">
     <g id="line2d_3">
      <g>
       <use xlink:href="#me78714dfd3" x="113.786609" y="99.333125" style="stroke: #000000; stroke-width: 1.5"/>
      </g>
     </g>
     <g id="text_3">
      <text style="font: 10px 'Arial', sans-serif, serif; text-anchor: middle" x="113.786609" y="113.490938" transform="rotate(-0 113.786609 113.490938)">EZ</text>
     </g>
    </g>
   </g>
   <g id="matplotlib.axis_2">
    <g id="ytick_1">
     <g id="line2d_4">
      <defs>
       <path id="m3156d372c1" d="M 0 0 
L -3.5 0 
" style="stroke: #000000; stroke-width: 1.5"/>
      </defs>
      <g>
       <use xlink:href="#m3156d372c1" x="44.267187" y="99.333125" style="stroke: #000000; stroke-width: 1.5"/>
      </g>
     </g>
     <g id="text_4">
      <text style="font: 10px 'Arial', sans-serif, serif; text-anchor: end" x="37.267187" y="102.912031" transform="rotate(-0 37.267187 102.912031)">0</text>
     </g>
    </g>
    <g id="ytick_2">
     <g id="line2d_5">
      <g>
       <use xlink:href="#m3156d372c1" x="44.267187" y="64.443257" style="stroke: #000000; stroke-width: 1.5"/>
      </g>
     </g>
     <g id="text_5">
      <text style="font: 10px 'Arial', sans-serif, serif; text-anchor: end" x="37.267187" y="68.022163" transform="rotate(-0 37.267187 68.022163)">200</text>
     </g>
    </g>
    <g id="ytick_3">
     <g id="line2d_6">
      <g>
       <use xlink:href="#m3156d372c1" x="44.267187" y="29.553389" style="stroke: #000000; stroke-width: 1.5"/>
      </g>
     </g>
     <g id="text_6">
      <text style="font: 10px 'Arial', sans-serif, serif; text-anchor: end" x="37.267187" y="33.132296" transform="rotate(-0 37.267187 33.132296)">400</text>
     </g>
    </g>
    <g id="text_7">
     <text style="font: 10px 'Arial', sans-serif, serif; text-anchor: middle" x="14.479687" y="57.753125" transform="rotate(-90 14.479687 57.753125)">(predicted) count</text>
    </g>
   </g>
   <g id="patch_12">
    <path d="M 44.267187 99.333125 
L 44.267187 16.173125 
" style="fill: none; stroke: #000000; stroke-width: 1.5; stroke-linejoin: miter; stroke-linecap: square"/>
   </g>
   <g id="patch_13">
    <path d="M 44.267187 99.333125 
L 127.967187 99.333125 
" style="fill: none; stroke: #000000; stroke-width: 1.5; stroke-linejoin: miter; stroke-linecap: square"/>
   </g>
   <g id="legend_1">
    <g id="patch_14">
     <path d="M 136.967187 18.357813 
L 156.967187 18.357813 
L 156.967187 11.357813 
L 136.967187 11.357813 
z
" style="fill: #4daf4a"/>
    </g>
    <g id="text_8">
     <text style="font: 10px 'Arial', sans-serif, serif; text-anchor: start" x="164.967187" y="18.357813" transform="rotate(-0 164.967187 18.357813)">ground truth</text>
    </g>
    <g id="patch_15">
     <path d="M 136.967187 32.620313 
L 156.967187 32.620313 
L 156.967187 25.620313 
L 136.967187 25.620313 
z
" style="fill: #ff7f00"/>
    </g>
    <g id="text_9">
     <text style="font: 10px 'Arial', sans-serif, serif; text-anchor: start" x="164.967187" y="32.620313" transform="rotate(-0 164.967187 32.620313)">BAM</text>
    </g>
    <g id="patch_16">
     <path d="M 136.967187 46.765625 
L 156.967187 46.765625 
L 156.967187 39.765625 
L 136.967187 39.765625 
z
" style="fill: #377eb8"/>
    </g>
    <g id="text_10">
     <text style="font: 10px 'Arial', sans-serif, serif; text-anchor: start" x="164.967187" y="46.765625" transform="rotate(-0 164.967187 46.765625)">NPE</text>
    </g>
   </g>
  </g>
 </g>
 <defs>
  <clipPath id="pcf5175993b">
   <rect x="44.267187" y="16.173125" width="83.7" height="83.16"/>
  </clipPath>
 </defs>
</svg>
