<?xml version="1.0" encoding="utf-8" standalone="no"?>
<!DOCTYPE svg PUBLIC "-//W3C//DTD SVG 1.1//EN"
  "http://www.w3.org/Graphics/SVG/1.1/DTD/svg11.dtd">
<svg xmlns:xlink="http://www.w3.org/1999/xlink" width="165.21625pt" height="136.59625pt" viewBox="0 0 165.21625 136.59625" xmlns="http://www.w3.org/2000/svg" version="1.1">
 <metadata>
  <rdf:RDF xmlns:dc="http://purl.org/dc/elements/1.1/" xmlns:cc="http://creativecommons.org/ns#" xmlns:rdf="http://www.w3.org/1999/02/22-rdf-syntax-ns#">
   <cc:Work>
    <dc:type rdf:resource="http://purl.org/dc/dcmitype/StillImage"/>
    <dc:date>2023-10-23T10:12:31.182619</dc:date>
    <dc:format>image/svg+xml</dc:format>
    <dc:creator>
     <cc:Agent>
      <dc:title>Matplotlib v3.7.2, https://matplotlib.org/</dc:title>
     </cc:Agent>
    </dc:creator>
   </cc:Work>
  </rdf:RDF>
 </metadata>
 <defs>
  <style type="text/css">*{stroke-linejoin: round; stroke-linecap: butt}</style>
 </defs>
 <g id="figure_1">
  <g id="patch_1">
   <path d="M -0 136.59625 
L 165.21625 136.59625 
L 165.21625 0 
L -0 0 
z
" style="fill: #ffffff"/>
  </g>
  <g id="axes_1">
   <g id="patch_2">
    <path d="M 18.51625 118.08 
L 158.01625 118.08 
L 158.01625 7.2 
L 18.51625 7.2 
z
" style="fill: #ffffff"/>
   </g>
   <g id="matplotlib.axis_1">
    <g id="text_1">
     <!-- action $a$ -->
     <g transform="translate(74.22625 127.80625)">
      <text>
       <tspan style="font: 8px 'Arial'" x="0 4.449219 8.449219 10.671875 12.449219 16.898438 21.347656 23.570312" y="-0.265625">action a</tspan>
      </text>
     </g>
    </g>
   </g>
   <g id="matplotlib.axis_2">
    <g id="text_2">
     <text style="font: 8px 'Arial', sans-serif, serif; text-anchor: middle" x="12.92625" y="62.64" transform="rotate(-90 12.92625 62.64)">incurred costs</text>
    </g>
   </g>
   <g id="line2d_1">
    <path d="M 18.51625 95.783119 
L 20.890124 102.132404 
L 22.845079 106.76879 
L 24.520755 110.216211 
L 26.056791 112.886268 
L 27.453187 114.866422 
L 28.709943 116.259561 
L 29.827061 117.174374 
L 30.804538 117.717775 
L 31.782016 118.017023 
L 32.759494 118.069918 
L 33.73697 117.876083 
L 34.714447 117.436942 
L 35.691926 116.755696 
L 36.809043 115.687141 
L 38.065799 114.127576 
L 39.322555 112.207492 
L 40.718952 109.67874 
L 42.394626 106.144561 
L 44.209943 101.778885 
L 46.444178 95.783119 
L 49.23697 87.605771 
L 59.709943 56.23914 
L 62.223458 49.704462 
L 64.59733 44.140003 
L 66.831568 39.483232 
L 68.926157 35.638882 
L 70.881114 32.498525 
L 72.836071 29.77231 
L 74.791023 27.434461 
L 76.745975 25.453635 
L 78.700937 23.795038 
L 80.655889 22.422368 
L 82.750483 21.22772 
L 84.984721 20.220965 
L 87.35859 19.401057 
L 90.011745 18.727069 
L 93.083813 18.188678 
L 96.714447 17.788211 
L 101.462197 17.505876 
L 108.304541 17.343416 
L 122.268494 17.283268 
L 158.01625 17.28 
L 158.01625 17.28 
" clip-path="url(#p9a26c9dc99)" style="fill: none; stroke: #b5b5b5; stroke-width: 1.5; stroke-linecap: square"/>
   </g>
   <g id="line2d_2">
    <path d="M 18.51625 17.28 
L 117.24148 17.37729 
L 118.358591 17.585154 
L 119.196427 17.952336 
L 119.894625 18.522503 
L 120.453185 19.25295 
L 121.011746 20.333353 
L 121.570296 21.885504 
L 122.128857 24.050636 
L 122.827066 27.851295 
L 123.525253 33.135852 
L 124.223451 40.126626 
L 125.061298 50.866906 
L 126.178419 68.596104 
L 128.412651 105.291783 
L 129.110839 113.031918 
L 129.669399 116.793559 
L 129.948674 117.756822 
L 130.22796 118.08 
L 130.367598 117.999106 
L 130.646883 117.35436 
L 130.926158 116.077148 
L 131.345081 113.031918 
L 131.903642 107.075668 
L 132.741467 94.994375 
L 136.092821 41.73997 
L 136.930667 33.135906 
L 137.628865 27.851253 
L 138.327053 24.05069 
L 139.025251 21.445858 
L 139.72346 19.742289 
L 140.421647 18.678138 
L 141.119845 18.04265 
L 141.957692 17.629494 
L 142.935176 17.410725 
L 144.610836 17.300169 
L 150.475707 17.280006 
L 158.01625 17.28 
L 158.01625 17.28 
" clip-path="url(#p9a26c9dc99)" style="fill: none; stroke: #7a7a7a; stroke-width: 1.5; stroke-linecap: square"/>
   </g>
   <g id="patch_3">
    <path d="M 18.51625 118.08 
L 18.51625 7.2 
" style="fill: none; stroke: #000000; stroke-width: 1.5; stroke-linejoin: miter; stroke-linecap: square"/>
   </g>
   <g id="patch_4">
    <path d="M 18.51625 118.08 
L 158.01625 118.08 
" style="fill: none; stroke: #000000; stroke-width: 1.5; stroke-linejoin: miter; stroke-linecap: square"/>
   </g>
   <g id="legend_1">
    <g id="line2d_3">
     <path d="M 64.38625 94.89 
L 72.38625 94.89 
L 80.38625 94.89 
" style="fill: none; stroke: #b5b5b5; stroke-width: 1.5; stroke-linecap: square"/>
    </g>
    <g id="text_3">
     <!-- small $\theta$ -->
     <g transform="translate(86.78625 97.69)">
      <text>
       <tspan style="font: 8px 'Arial'" x="0 4 10.664062 15.113281 16.890625 18.667969 20.890625" y="-0.171875">small θ</tspan>
      </text>
     </g>
    </g>
    <g id="line2d_4">
     <path d="M 64.38625 106.32 
L 72.38625 106.32 
L 80.38625 106.32 
" style="fill: none; stroke: #7a7a7a; stroke-width: 1.5; stroke-linecap: square"/>
    </g>
    <g id="text_4">
     <!-- large $\theta$ -->
     <g transform="translate(86.78625 109.12)">
      <text>
       <tspan style="font: 8px 'Arial'" x="0 1.777344 6.226562 8.890625 13.339844 17.789062 20.011719" y="-0.171875">large θ</tspan>
      </text>
     </g>
    </g>
   </g>
  </g>
 </g>
 <defs>
  <clipPath id="p9a26c9dc99">
   <rect x="18.51625" y="7.2" width="139.5" height="110.88"/>
  </clipPath>
 </defs>
</svg>
