<?xml version="1.0" encoding="utf-8" standalone="no"?>
<!DOCTYPE svg PUBLIC "-//W3C//DTD SVG 1.1//EN"
  "http://www.w3.org/Graphics/SVG/1.1/DTD/svg11.dtd">
<svg xmlns:xlink="http://www.w3.org/1999/xlink" width="214.985625pt" height="94.073312pt" viewBox="0 0 214.985625 94.073312" xmlns="http://www.w3.org/2000/svg" version="1.1">
 <metadata>
  <rdf:RDF xmlns:dc="http://purl.org/dc/elements/1.1/" xmlns:cc="http://creativecommons.org/ns#" xmlns:rdf="http://www.w3.org/1999/02/22-rdf-syntax-ns#">
   <cc:Work>
    <dc:type rdf:resource="http://purl.org/dc/dcmitype/StillImage"/>
    <dc:date>2023-12-05T08:45:48.602421</dc:date>
    <dc:format>image/svg+xml</dc:format>
    <dc:creator>
     <cc:Agent>
      <dc:title>Matplotlib v3.7.2, https://matplotlib.org/</dc:title>
     </cc:Agent>
    </dc:creator>
   </cc:Work>
  </rdf:RDF>
 </metadata>
 <defs>
  <style type="text/css">*{stroke-linejoin: round; stroke-linecap: butt}</style>
 </defs>
 <g id="figure_1">
  <g id="patch_1">
   <path d="M 0 94.073312 
L 214.985625 94.073312 
L 214.985625 0 
L 0 0 
z
" style="fill: #ffffff"/>
  </g>
  <g id="axes_1">
   <g id="patch_2">
    <path d="M 20.345313 73.728 
L 126.365313 73.728 
L 126.365313 7.2 
L 20.345313 7.2 
z
" style="fill: #ffffff"/>
   </g>
   <g id="matplotlib.axis_1">
    <g id="text_1">
     <!-- action $a$ -->
     <g transform="translate(55.805312 84.885812)">
      <text>
       <tspan style="font: 10px 'Arial'" x="0 5.561523 10.561523 13.339844 15.561523 21.123047 26.68457 29.462891" y="-0.84375">action a</tspan>
      </text>
     </g>
    </g>
   </g>
   <g id="matplotlib.axis_2">
    <g id="text_2">
     <text style="font: 10px 'Arial', sans-serif, serif; text-anchor: middle" x="14.357813" y="40.464" transform="rotate(-90 14.357813 40.464)">expected costs</text>
    </g>
   </g>
   <g id="line2d_1">
    <path d="M 20.345313 38.045458 
L 22.476368 40.018424 
L 24.074659 41.252031 
L 25.672951 42.231338 
L 27.271242 42.923501 
L 28.869534 43.303463 
L 30.467825 43.35564 
L 32.066117 43.075326 
L 33.664408 42.469688 
L 35.262699 41.558621 
L 36.860991 40.375718 
L 38.992046 38.463625 
L 44.319684 33.390893 
L 45.385212 32.721023 
L 46.45074 32.357274 
L 46.983503 32.326684 
L 47.516267 32.418597 
L 48.049031 32.650205 
L 48.581795 33.039037 
L 49.114559 33.602468 
L 49.647323 34.357034 
L 50.71285 36.496496 
L 51.778378 39.538796 
L 52.843905 43.487513 
L 54.442197 50.828232 
L 57.106016 63.936481 
L 58.171544 67.917361 
L 58.704307 69.334437 
L 59.237071 70.280757 
L 59.769835 70.704 
L 60.302599 70.567021 
L 60.835363 69.85037 
L 61.368127 68.554032 
L 61.90089 66.69805 
L 62.966418 61.483875 
L 64.031946 54.723997 
L 67.761292 29.022243 
L 68.82682 23.476276 
L 69.892348 19.19756 
L 70.957875 16.109181 
L 72.023403 14.014468 
L 73.088931 12.6709 
L 74.154458 11.847126 
L 75.219986 11.355581 
L 76.818277 10.960519 
L 78.949333 10.709852 
L 83.211443 10.472195 
L 90.670137 10.300374 
L 105.587524 10.230268 
L 126.365312 10.224 
L 126.365312 10.224 
" clip-path="url(#p85eab698b1)" style="fill: none; stroke: #4daf4a; stroke-width: 1.5; stroke-linecap: square"/>
   </g>
   <g id="line2d_2">
    <path d="M 20.345313 23.260925 
L 22.476368 25.250684 
L 24.607423 27.548369 
L 26.738478 30.177809 
L 28.869534 33.152057 
L 31.000589 36.465894 
L 33.664408 41.028832 
L 41.123101 54.256799 
L 42.721393 56.489553 
L 43.786921 57.705256 
L 44.852448 58.656171 
L 45.917976 59.306576 
L 46.983503 59.626688 
L 48.049031 59.594481 
L 49.114559 59.197252 
L 50.180086 58.43271 
L 51.245614 57.309506 
L 52.311142 55.847376 
L 53.376669 54.076901 
L 54.974961 50.935671 
L 57.106016 46.129675 
L 61.368127 36.242089 
L 63.499182 31.836644 
L 66.163001 26.919633 
L 68.294056 23.408804 
L 69.892348 21.082802 
L 71.490639 19.087699 
L 73.088931 17.438309 
L 74.687222 16.093855 
L 76.285514 14.993101 
L 78.416569 13.831061 
L 80.547624 12.957207 
L 83.211443 12.158336 
L 85.875262 11.623822 
L 89.071845 11.244322 
L 92.801192 11.067664 
L 107.185815 10.709677 
L 126.365312 10.525708 
L 126.365312 10.525708 
" clip-path="url(#p85eab698b1)" style="fill: none; stroke: #377eb8; stroke-width: 1.5; stroke-linecap: square"/>
   </g>
   <g id="line2d_3">
    <path d="M 20.345313 42.689409 
L 25.140187 43.705705 
L 25.672951 43.781049 
L 26.738478 43.56114 
L 31.533353 42.263426 
L 34.729936 41.462088 
L 35.795463 40.93647 
L 40.590338 37.916756 
L 43.254157 36.827601 
L 46.45074 37.036909 
L 46.983503 37.293557 
L 48.581795 40.514726 
L 51.245614 46.414677 
L 52.311142 48.921028 
L 53.376669 52.419283 
L 57.106016 65.821717 
L 57.63878 67.553705 
L 58.171544 68.623383 
L 59.237071 69.908443 
L 59.769835 70.203522 
L 60.302599 68.897729 
L 60.835363 67.11205 
L 63.499182 54.661251 
L 66.695765 33.930789 
L 67.761292 28.228597 
L 68.82682 23.745884 
L 69.892348 20.29862 
L 70.957875 17.653461 
L 72.023403 15.655074 
L 73.088931 14.189541 
L 74.154458 13.146414 
L 75.219986 12.408472 
L 76.285514 11.853868 
L 77.883805 11.314279 
L 80.01486 10.863193 
L 82.678679 10.566835 
L 86.408026 10.376749 
L 94.399483 10.256475 
L 117.841091 10.224474 
L 126.365312 10.224037 
L 126.365312 10.224037 
" clip-path="url(#p85eab698b1)" style="fill: none; stroke: #ff7f00; stroke-width: 1.5; stroke-linecap: square"/>
   </g>
   <g id="patch_3">
    <path d="M 20.345313 73.728 
L 20.345313 7.2 
" style="fill: none; stroke: #000000; stroke-width: 1.5; stroke-linejoin: miter; stroke-linecap: square"/>
   </g>
   <g id="patch_4">
    <path d="M 20.345313 73.728 
L 126.365312 73.728 
" style="fill: none; stroke: #000000; stroke-width: 1.5; stroke-linejoin: miter; stroke-linecap: square"/>
   </g>
   <g id="legend_1">
    <g id="line2d_4">
     <path d="M 135.365313 25.34525 
L 140.115313 25.34525 
L 144.865313 25.34525 
" style="fill: none; stroke: #4daf4a; stroke-width: 1.5; stroke-linecap: square"/>
    </g>
    <g id="text_3">
     <text style="font: 10px 'Arial', sans-serif, serif; text-anchor: start" x="149.865313" y="28.84525" transform="rotate(-0 149.865313 28.84525)">ground truth</text>
    </g>
    <g id="line2d_5">
     <path d="M 135.365313 39.60775 
L 140.115313 39.60775 
L 144.865313 39.60775 
" style="fill: none; stroke: #377eb8; stroke-width: 1.5; stroke-linecap: square"/>
    </g>
    <g id="text_4">
     <text style="font: 10px 'Arial', sans-serif, serif; text-anchor: start" x="149.865313" y="43.10775" transform="rotate(-0 149.865313 43.10775)">NPE-MC</text>
    </g>
    <g id="line2d_6">
     <path d="M 135.365313 53.753062 
L 140.115313 53.753062 
L 144.865313 53.753062 
" style="fill: none; stroke: #ff7f00; stroke-width: 1.5; stroke-linecap: square"/>
    </g>
    <g id="text_5">
     <text style="font: 10px 'Arial', sans-serif, serif; text-anchor: start" x="149.865313" y="57.253062" transform="rotate(-0 149.865313 57.253062)">BAM</text>
    </g>
   </g>
  </g>
 </g>
 <defs>
  <clipPath id="p85eab698b1">
   <rect x="20.345313" y="7.2" width="106.02" height="66.528"/>
  </clipPath>
 </defs>
</svg>
