<?xml version="1.0" encoding="utf-8" standalone="no"?>
<!DOCTYPE svg PUBLIC "-//W3C//DTD SVG 1.1//EN"
  "http://www.w3.org/Graphics/SVG/1.1/DTD/svg11.dtd">
<svg xmlns:xlink="http://www.w3.org/1999/xlink" width="134.82pt" height="94.073312pt" viewBox="0 0 134.82 94.073312" xmlns="http://www.w3.org/2000/svg" version="1.1">
 <metadata>
  <rdf:RDF xmlns:dc="http://purl.org/dc/elements/1.1/" xmlns:cc="http://creativecommons.org/ns#" xmlns:rdf="http://www.w3.org/1999/02/22-rdf-syntax-ns#">
   <cc:Work>
    <dc:type rdf:resource="http://purl.org/dc/dcmitype/StillImage"/>
    <dc:date>2023-12-05T08:45:40.061694</dc:date>
    <dc:format>image/svg+xml</dc:format>
    <dc:creator>
     <cc:Agent>
      <dc:title>Matplotlib v3.7.2, https://matplotlib.org/</dc:title>
     </cc:Agent>
    </dc:creator>
   </cc:Work>
  </rdf:RDF>
 </metadata>
 <defs>
  <style type="text/css">*{stroke-linejoin: round; stroke-linecap: butt}</style>
 </defs>
 <g id="figure_1">
  <g id="patch_1">
   <path d="M 0 94.073312 
L 134.82 94.073312 
L 134.82 0 
L 0 0 
z
" style="fill: #ffffff"/>
  </g>
  <g id="axes_1">
   <g id="patch_2">
    <path d="M 21.6 73.728 
L 127.62 73.728 
L 127.62 7.2 
L 21.6 7.2 
z
" style="fill: #ffffff"/>
   </g>
   <g id="matplotlib.axis_1">
    <g id="text_1">
     <!-- $\theta$ -->
     <g transform="translate(71.81 84.885812)">
      <text>
       <tspan style="font: 10px 'Arial'" x="0" y="-0.71875">θ</tspan>
      </text>
     </g>
    </g>
   </g>
   <g id="matplotlib.axis_2">
    <g id="text_2">
     <!-- $p(\theta|x_o)$ -->
     <g transform="translate(14.5 55.464) rotate(-90)">
      <text>
       <tspan style="font: 10px 'Arial'" x="0 5.561523 8.891602 14.453125 17.050781 26.615895" y="-0.71875">p(θ|x)</tspan>
       <tspan style="font: 7px 'Arial'" x="22.225016" y="2.2681249999999995">o</tspan>
      </text>
     </g>
    </g>
   </g>
   <g id="line2d_1">
    <path d="M 21.6 70.704 
L 25.951171 70.603257 
L 26.269549 70.399146 
L 26.587928 69.895587 
L 26.906306 68.808366 
L 27.224684 66.739472 
L 27.543063 63.247929 
L 27.967568 55.832087 
L 28.604324 39.357866 
L 29.453333 17.136455 
L 29.877837 11.271093 
L 30.09009 10.269809 
L 30.196216 10.25684 
L 30.408468 11.152572 
L 30.726846 14.51551 
L 31.257477 23.816201 
L 32.743243 52.013207 
L 33.379999 59.543722 
L 33.91063 63.65999 
L 34.441261 66.32606 
L 34.971892 67.997443 
L 35.502522 69.024765 
L 36.139278 69.742276 
L 36.882162 70.184015 
L 37.837296 70.449141 
L 39.323063 70.599272 
L 42.719098 70.659718 
L 47.388648 70.554457 
L 49.192792 70.315181 
L 50.254052 69.979478 
L 51.103063 69.49451 
L 51.845946 68.806923 
L 52.482702 67.924995 
L 53.119458 66.665335 
L 53.756215 64.903406 
L 54.392971 62.500069 
L 55.135854 58.702063 
L 55.878739 53.674531 
L 56.727747 46.378525 
L 58.00126 33.094505 
L 59.487025 17.970616 
L 60.123784 13.366159 
L 60.654414 11.005095 
L 60.972792 10.337896 
L 61.185044 10.224 
L 61.397296 10.379103 
L 61.715675 11.113714 
L 62.140179 12.997736 
L 62.670809 16.667929 
L 63.413692 23.726236 
L 66.597476 56.965578 
L 67.340361 61.762115 
L 68.083241 65.174223 
L 68.719997 67.182613 
L 69.356754 68.538652 
L 69.99351 69.416494 
L 70.630266 69.96265 
L 71.373151 70.329351 
L 72.434412 70.571823 
L 74.132429 70.68241 
L 79.863246 70.70398 
L 127.62 70.704 
L 127.62 70.704 
" clip-path="url(#pa6f6e8692e)" style="fill: none; stroke: #4daf4a; stroke-width: 1.5; stroke-linecap: square"/>
   </g>
   <g id="line2d_2">
    <path d="M 21.6 68.37818 
L 23.828649 67.448945 
L 26.057297 66.271175 
L 28.285946 64.829869 
L 30.62072 63.042593 
L 33.273873 60.713066 
L 37.20054 56.919184 
L 41.021081 53.322745 
L 43.249729 51.529846 
L 45.053873 50.354948 
L 46.645766 49.574976 
L 48.131531 49.093415 
L 49.51117 48.874945 
L 50.890809 48.883807 
L 52.27045 49.119728 
L 53.650089 49.575361 
L 55.135854 50.295545 
L 56.833873 51.377953 
L 58.744142 52.868368 
L 61.185044 55.069914 
L 70.099639 63.388299 
L 72.434412 65.125479 
L 74.663067 66.516144 
L 76.891712 67.644816 
L 79.120361 68.529499 
L 81.561263 69.253935 
L 84.214418 69.804548 
L 87.292076 70.211591 
L 91.218738 70.49233 
L 96.843427 70.649513 
L 108.623422 70.702192 
L 127.62 70.703999 
L 127.62 70.703999 
" clip-path="url(#pa6f6e8692e)" style="fill: none; stroke: #377eb8; stroke-width: 1.5; stroke-linecap: square"/>
   </g>
   <g id="patch_3">
    <path d="M 21.6 73.728 
L 21.6 7.2 
" style="fill: none; stroke: #000000; stroke-width: 1.5; stroke-linejoin: miter; stroke-linecap: square"/>
   </g>
   <g id="patch_4">
    <path d="M 21.6 73.728 
L 127.62 73.728 
" style="fill: none; stroke: #000000; stroke-width: 1.5; stroke-linejoin: miter; stroke-linecap: square"/>
   </g>
  </g>
 </g>
 <defs>
  <clipPath id="pa6f6e8692e">
   <rect x="21.6" y="7.2" width="106.02" height="66.528"/>
  </clipPath>
 </defs>
</svg>
