<?xml version="1.0" encoding="utf-8" standalone="no"?>
<!DOCTYPE svg PUBLIC "-//W3C//DTD SVG 1.1//EN"
  "http://www.w3.org/Graphics/SVG/1.1/DTD/svg11.dtd">
<svg xmlns:xlink="http://www.w3.org/1999/xlink" width="133.565312pt" height="94.073312pt" viewBox="0 0 133.565312 94.073312" xmlns="http://www.w3.org/2000/svg" version="1.1">
 <metadata>
  <rdf:RDF xmlns:dc="http://purl.org/dc/elements/1.1/" xmlns:cc="http://creativecommons.org/ns#" xmlns:rdf="http://www.w3.org/1999/02/22-rdf-syntax-ns#">
   <cc:Work>
    <dc:type rdf:resource="http://purl.org/dc/dcmitype/StillImage"/>
    <dc:date>2023-12-05T08:45:40.305163</dc:date>
    <dc:format>image/svg+xml</dc:format>
    <dc:creator>
     <cc:Agent>
      <dc:title>Matplotlib v3.7.2, https://matplotlib.org/</dc:title>
     </cc:Agent>
    </dc:creator>
   </cc:Work>
  </rdf:RDF>
 </metadata>
 <defs>
  <style type="text/css">*{stroke-linejoin: round; stroke-linecap: butt}</style>
 </defs>
 <g id="figure_1">
  <g id="patch_1">
   <path d="M 0 94.073312 
L 133.565312 94.073312 
L 133.565312 0 
L 0 0 
z
" style="fill: #ffffff"/>
  </g>
  <g id="axes_1">
   <g id="patch_2">
    <path d="M 20.345313 73.728 
L 126.365313 73.728 
L 126.365313 7.2 
L 20.345313 7.2 
z
" style="fill: #ffffff"/>
   </g>
   <g id="matplotlib.axis_1">
    <g id="text_1">
     <!-- action $a$ -->
     <g transform="translate(55.805312 84.885812)">
      <text>
       <tspan style="font: 10px 'Arial'" x="0 5.561523 10.561523 13.339844 15.561523 21.123047 26.68457 29.462891" y="-0.84375">action a</tspan>
      </text>
     </g>
    </g>
   </g>
   <g id="matplotlib.axis_2">
    <g id="text_2">
     <text style="font: 10px 'Arial', sans-serif, serif; text-anchor: middle" x="14.357813" y="40.464" transform="rotate(-90 14.357813 40.464)">incurred costs</text>
    </g>
   </g>
   <g id="line2d_1">
    <path d="M 20.345313 57.940814 
L 22.573961 63.323032 
L 24.271979 66.885607 
L 25.757745 69.491051 
L 27.031258 71.274538 
L 28.092519 72.408877 
L 29.047655 73.138132 
L 30.00279 73.57999 
L 30.851799 73.726172 
L 31.700808 73.638419 
L 32.549817 73.317756 
L 33.398826 72.767885 
L 34.353961 71.883288 
L 35.415223 70.585323 
L 36.58261 68.801166 
L 37.96225 66.261349 
L 39.554141 62.840644 
L 41.570537 57.940814 
L 44.754321 49.52151 
L 48.680987 39.262926 
L 51.015762 33.775229 
L 53.032158 29.587357 
L 54.836303 26.325672 
L 56.534319 23.685055 
L 58.23234 21.449609 
L 59.930356 19.593909 
L 61.628377 18.082617 
L 63.326393 16.874637 
L 65.130534 15.875077 
L 67.040807 15.080008 
L 69.16333 14.447509 
L 71.60423 13.963318 
L 74.575765 13.613114 
L 78.502432 13.387599 
L 84.869995 13.272621 
L 104.078826 13.248036 
L 126.365313 13.248 
L 126.365313 13.248 
" clip-path="url(#p324061520f)" style="fill: none; stroke-dasharray: 4.5,1.2; stroke-dashoffset: 0; stroke: #969696; stroke-width: 1.5"/>
   </g>
   <g id="line2d_2">
    <path d="M 20.345313 13.248 
L 98.666388 13.35849 
L 99.303151 13.600922 
L 99.727657 13.964825 
L 100.152155 14.629509 
L 100.576661 15.774382 
L 101.001167 17.631779 
L 101.425673 20.465777 
L 101.956304 25.751802 
L 102.593059 34.944615 
L 103.548196 52.990037 
L 104.3972 67.700943 
L 104.821706 72.161413 
L 105.14008 73.628866 
L 105.246212 73.728 
L 105.352337 73.628873 
L 105.564594 72.841752 
L 105.882967 70.260064 
L 106.307473 64.578568 
L 107.050353 50.896007 
L 108.217747 29.963877 
L 108.854494 22.329076 
L 109.385124 18.23832 
L 109.915763 15.774396 
L 110.446394 14.426305 
L 110.977024 13.754285 
L 111.507655 13.448407 
L 112.250535 13.295711 
L 113.948551 13.248981 
L 126.365313 13.248 
L 126.365313 13.248 
" clip-path="url(#p324061520f)" style="fill: none; stroke: #525252; stroke-width: 1.5; stroke-linecap: square"/>
   </g>
   <g id="patch_3">
    <path d="M 20.345313 73.728 
L 20.345313 7.2 
" style="fill: none; stroke: #000000; stroke-width: 1.5; stroke-linejoin: miter; stroke-linecap: square"/>
   </g>
   <g id="patch_4">
    <path d="M 20.345313 73.728 
L 126.365313 73.728 
" style="fill: none; stroke: #000000; stroke-width: 1.5; stroke-linejoin: miter; stroke-linecap: square"/>
   </g>
   <g id="legend_1">
    <g id="line2d_3">
     <path d="M 50.255313 44.7405 
L 55.005313 44.7405 
L 59.755313 44.7405 
" style="fill: none; stroke-dasharray: 4.5,1.2; stroke-dashoffset: 0; stroke: #969696; stroke-width: 1.5"/>
    </g>
    <g id="text_3">
     <!-- small $\theta$ -->
     <g transform="translate(64.755313 48.2405)">
      <text>
       <tspan style="font: 10px 'Arial'" x="0 5 13.330078 18.891602 21.113281 23.334961 26.113281" y="-0.71875">small θ</tspan>
      </text>
     </g>
    </g>
    <g id="line2d_4">
     <path d="M 50.255313 59.028 
L 55.005313 59.028 
L 59.755313 59.028 
" style="fill: none; stroke: #525252; stroke-width: 1.5; stroke-linecap: square"/>
    </g>
    <g id="text_4">
     <!-- large $\theta$ -->
     <g transform="translate(64.755313 62.528)">
      <text>
       <tspan style="font: 10px 'Arial'" x="0 2.22168 7.783203 11.113281 16.674805 22.236328 25.014648" y="-0.71875">large θ</tspan>
      </text>
     </g>
    </g>
   </g>
  </g>
 </g>
 <defs>
  <clipPath id="p324061520f">
   <rect x="20.345313" y="7.2" width="106.02" height="66.528"/>
  </clipPath>
 </defs>
</svg>
