<?xml version="1.0" encoding="utf-8" standalone="no"?>
<!DOCTYPE svg PUBLIC "-//W3C//DTD SVG 1.1//EN"
  "http://www.w3.org/Graphics/SVG/1.1/DTD/svg11.dtd">
<svg xmlns:xlink="http://www.w3.org/1999/xlink" width="165.21625pt" height="136.59625pt" viewBox="0 0 165.21625 136.59625" xmlns="http://www.w3.org/2000/svg" version="1.1">
 <metadata>
  <rdf:RDF xmlns:dc="http://purl.org/dc/elements/1.1/" xmlns:cc="http://creativecommons.org/ns#" xmlns:rdf="http://www.w3.org/1999/02/22-rdf-syntax-ns#">
   <cc:Work>
    <dc:type rdf:resource="http://purl.org/dc/dcmitype/StillImage"/>
    <dc:date>2023-10-23T10:12:39.789138</dc:date>
    <dc:format>image/svg+xml</dc:format>
    <dc:creator>
     <cc:Agent>
      <dc:title>Matplotlib v3.7.2, https://matplotlib.org/</dc:title>
     </cc:Agent>
    </dc:creator>
   </cc:Work>
  </rdf:RDF>
 </metadata>
 <defs>
  <style type="text/css">*{stroke-linejoin: round; stroke-linecap: butt}</style>
 </defs>
 <g id="figure_1">
  <g id="patch_1">
   <path d="M -0 136.59625 
L 165.21625 136.59625 
L 165.21625 0 
L -0 0 
z
" style="fill: #ffffff"/>
  </g>
  <g id="axes_1">
   <g id="patch_2">
    <path d="M 18.51625 118.08 
L 158.01625 118.08 
L 158.01625 7.2 
L 18.51625 7.2 
z
" style="fill: #ffffff"/>
   </g>
   <g id="matplotlib.axis_1">
    <g id="text_1">
     <!-- action $a$ -->
     <g transform="translate(74.22625 127.80625)">
      <text>
       <tspan style="font: 8px 'Arial'" x="0 4.449219 8.449219 10.671875 12.449219 16.898438 21.347656 23.570312" y="-0.265625">action a</tspan>
      </text>
     </g>
    </g>
   </g>
   <g id="matplotlib.axis_2">
    <g id="text_2">
     <text style="font: 8px 'Arial', sans-serif, serif; text-anchor: middle" x="12.92625" y="62.64" transform="rotate(-90 12.92625 62.64)">expected costs</text>
    </g>
   </g>
   <g id="line2d_1">
    <path d="M 18.51625 54.888958 
L 20.619265 56.959818 
L 22.72228 58.730701 
L 24.825295 60.154428 
L 26.227305 60.890897 
L 27.629315 61.446129 
L 29.031325 61.813176 
L 30.433335 61.987685 
L 31.835345 61.968206 
L 33.237356 61.756518 
L 34.639366 61.358094 
L 36.041376 60.782513 
L 38.144391 59.619899 
L 40.247406 58.165645 
L 46.556451 53.424572 
L 47.958461 52.716619 
L 49.360471 52.34192 
L 50.061476 52.318101 
L 50.762481 52.425447 
L 51.463486 52.681255 
L 52.164491 53.102994 
L 52.865496 53.708083 
L 53.566501 54.513277 
L 54.267506 55.53436 
L 54.968511 56.785402 
L 56.370521 60.021832 
L 57.772531 64.277099 
L 59.174541 69.534551 
L 60.576552 75.683736 
L 62.679567 86.063957 
L 65.483587 100.009521 
L 66.885597 105.877469 
L 67.586602 108.291088 
L 68.287607 110.269299 
L 68.988612 111.75271 
L 69.689617 112.690009 
L 70.390622 113.04 
L 71.091627 112.773334 
L 71.792632 111.873817 
L 72.493637 110.339363 
L 73.194642 108.182413 
L 73.895647 105.429853 
L 75.297657 98.312771 
L 76.699667 89.452901 
L 78.802682 74.231334 
L 81.606702 53.725259 
L 83.008712 44.611236 
L 84.410722 36.725063 
L 85.812732 30.210366 
L 87.214742 25.062271 
L 88.616753 21.163553 
L 90.018763 18.328243 
L 91.420773 16.342828 
L 92.822783 14.998941 
L 94.224793 14.114402 
L 95.626803 13.54319 
L 97.729818 13.04526 
L 100.533838 12.720108 
L 105.440873 12.475432 
L 114.553938 12.307257 
L 133.481074 12.243845 
L 158.01625 12.24 
L 158.01625 12.24 
" clip-path="url(#p1cc661d327)" style="fill: none; stroke: #000000; stroke-width: 1.5; stroke-linecap: square"/>
   </g>
   <g id="line2d_2">
    <path d="M 18.51625 62.959136 
L 26.92831 63.864604 
L 31.13434 64.01694 
L 33.938361 64.015602 
L 39.546401 63.743393 
L 40.948411 63.505266 
L 43.051426 63.034205 
L 46.556451 61.444792 
L 47.958461 60.864579 
L 48.659466 60.705049 
L 50.061476 60.67033 
L 52.865496 60.104591 
L 53.566501 60.143847 
L 54.267506 60.499442 
L 54.968511 61.495134 
L 55.669516 62.878716 
L 56.370521 64.571387 
L 57.772531 68.859062 
L 62.679567 85.660817 
L 64.081577 90.859212 
L 67.586602 105.492862 
L 68.287607 106.218759 
L 69.689617 106.697029 
L 70.390622 106.34665 
L 71.091627 104.776148 
L 71.792632 102.766184 
L 72.493637 100.105827 
L 74.596652 89.815082 
L 75.998662 82.412403 
L 78.101677 69.873296 
L 79.503687 60.411687 
L 80.905697 50.65433 
L 82.307707 42.281434 
L 83.709717 35.668925 
L 85.111727 30.291769 
L 86.513737 26.021355 
L 87.915747 22.685196 
L 89.317758 20.114694 
L 90.719768 18.152761 
L 92.121778 16.665117 
L 93.523788 15.543574 
L 94.925798 14.701697 
L 96.327808 14.096814 
L 98.430823 13.459308 
L 100.533838 13.039525 
L 103.337858 12.694839 
L 107.543888 12.434913 
L 114.553938 12.294 
L 132.079064 12.242545 
L 158.01625 12.240037 
L 158.01625 12.240037 
" clip-path="url(#p1cc661d327)" style="fill: none; stroke: #ff7f00; stroke-width: 1.5; stroke-linecap: square"/>
   </g>
   <g id="line2d_3">
    <path d="M 18.51625 39.545059 
L 20.619265 42.715606 
L 22.72228 46.204907 
L 25.5263 51.364434 
L 28.33032 57.093499 
L 31.13434 63.343032 
L 34.639366 71.726883 
L 42.350421 90.545928 
L 44.453436 95.13741 
L 46.556451 99.186701 
L 47.958461 101.493109 
L 49.360471 103.419631 
L 50.762481 104.911345 
L 52.164491 105.916355 
L 52.865496 106.221524 
L 53.566501 106.388118 
L 54.267506 106.411526 
L 54.968511 106.287822 
L 55.669516 106.013775 
L 56.370521 105.586956 
L 57.071526 105.005808 
L 58.473536 103.378921 
L 59.875546 101.139811 
L 61.277557 98.311503 
L 62.679567 94.933351 
L 64.081577 91.060141 
L 66.184592 84.474665 
L 68.988612 74.683824 
L 75.297657 51.974584 
L 77.400672 45.174786 
L 79.503687 39.079106 
L 81.606702 33.771284 
L 83.709717 29.265905 
L 85.111727 26.690277 
L 86.513737 24.433392 
L 87.915747 22.470317 
L 89.317758 20.774587 
L 90.719768 19.320268 
L 92.121778 18.08309 
L 94.224793 16.585464 
L 96.327808 15.453995 
L 98.430823 14.617656 
L 100.533838 14.007693 
L 103.337858 13.447174 
L 106.842883 13.023087 
L 111.048913 12.757408 
L 119.460974 12.506773 
L 133.481074 12.35555 
L 158.01625 12.267795 
L 158.01625 12.267795 
" clip-path="url(#p1cc661d327)" style="fill: none; stroke: #377eb8; stroke-width: 1.5; stroke-linecap: square"/>
   </g>
   <g id="patch_3">
    <path d="M 18.51625 118.08 
L 18.51625 7.2 
" style="fill: none; stroke: #000000; stroke-width: 1.5; stroke-linejoin: miter; stroke-linecap: square"/>
   </g>
   <g id="patch_4">
    <path d="M 18.51625 118.08 
L 158.01625 118.08 
" style="fill: none; stroke: #000000; stroke-width: 1.5; stroke-linejoin: miter; stroke-linecap: square"/>
   </g>
   <g id="legend_1">
    <g id="line2d_4">
     <path d="M 85.28 83.76375 
L 93.28 83.76375 
L 101.28 83.76375 
" style="fill: none; stroke: #000000; stroke-width: 1.5; stroke-linecap: square"/>
    </g>
    <g id="text_3">
     <text style="font: 8px 'Arial', sans-serif, serif; text-anchor: start" x="107.68" y="86.56375" transform="rotate(-0 107.68 86.56375)">ground truth</text>
    </g>
    <g id="line2d_5">
     <path d="M 85.28 95.17375 
L 93.28 95.17375 
L 101.28 95.17375 
" style="fill: none; stroke: #ff7f00; stroke-width: 1.5; stroke-linecap: square"/>
    </g>
    <g id="text_4">
     <text style="font: 8px 'Arial', sans-serif, serif; text-anchor: start" x="107.68" y="97.97375" transform="rotate(-0 107.68 97.97375)">NN</text>
    </g>
    <g id="line2d_6">
     <path d="M 85.28 106.49 
L 93.28 106.49 
L 101.28 106.49 
" style="fill: none; stroke: #377eb8; stroke-width: 1.5; stroke-linecap: square"/>
    </g>
    <g id="text_5">
     <text style="font: 8px 'Arial', sans-serif, serif; text-anchor: start" x="107.68" y="109.29" transform="rotate(-0 107.68 109.29)">NPE</text>
    </g>
   </g>
  </g>
 </g>
 <defs>
  <clipPath id="p1cc661d327">
   <rect x="18.51625" y="7.2" width="139.5" height="110.88"/>
  </clipPath>
 </defs>
</svg>
