<?xml version="1.0" encoding="utf-8" standalone="no"?>
<!DOCTYPE svg PUBLIC "-//W3C//DTD SVG 1.1//EN"
  "http://www.w3.org/Graphics/SVG/1.1/DTD/svg11.dtd">
<svg xmlns:xlink="http://www.w3.org/1999/xlink" width="166.22pt" height="136.59625pt" viewBox="0 0 166.22 136.59625" xmlns="http://www.w3.org/2000/svg" version="1.1">
 <metadata>
  <rdf:RDF xmlns:dc="http://purl.org/dc/elements/1.1/" xmlns:cc="http://creativecommons.org/ns#" xmlns:rdf="http://www.w3.org/1999/02/22-rdf-syntax-ns#">
   <cc:Work>
    <dc:type rdf:resource="http://purl.org/dc/dcmitype/StillImage"/>
    <dc:date>2023-10-23T10:12:30.801940</dc:date>
    <dc:format>image/svg+xml</dc:format>
    <dc:creator>
     <cc:Agent>
      <dc:title>Matplotlib v3.7.2, https://matplotlib.org/</dc:title>
     </cc:Agent>
    </dc:creator>
   </cc:Work>
  </rdf:RDF>
 </metadata>
 <defs>
  <style type="text/css">*{stroke-linejoin: round; stroke-linecap: butt}</style>
 </defs>
 <g id="figure_1">
  <g id="patch_1">
   <path d="M 0 136.59625 
L 166.22 136.59625 
L 166.22 0 
L 0 0 
z
" style="fill: #ffffff"/>
  </g>
  <g id="axes_1">
   <g id="patch_2">
    <path d="M 19.52 118.08 
L 159.02 118.08 
L 159.02 7.2 
L 19.52 7.2 
z
" style="fill: #ffffff"/>
   </g>
   <g id="matplotlib.axis_1">
    <g id="text_1">
     <!-- $\theta$ -->
     <g transform="translate(87.03 127.80625)">
      <text>
       <tspan style="font: 8px 'Arial'" x="0" y="-0.171875">θ</tspan>
      </text>
     </g>
    </g>
   </g>
   <g id="matplotlib.axis_2">
    <g id="text_2">
     <!-- $p(\theta|x_0)$ -->
     <g transform="translate(13.04 74.64) rotate(-90)">
      <text>
       <tspan style="font: 8px 'Arial'" x="0 4.449219 7.113281 11.5625 13.640625 21.292716" y="-0.171875">p(θ|x)</tspan>
       <tspan style="font: 5.6px 'Arial'" x="17.780013" y="2.217625">0</tspan>
      </text>
     </g>
    </g>
   </g>
   <g id="line2d_1">
    <path d="M 19.52 113.04 
L 24.965946 112.965766 
L 25.384865 112.793411 
L 25.803783 112.326666 
L 26.083063 111.692644 
L 26.362342 110.630487 
L 26.781261 107.809708 
L 27.20018 102.858052 
L 27.619098 95.121727 
L 28.177657 80.075583 
L 30.272252 15.642377 
L 30.551531 12.87663 
L 30.691171 12.316348 
L 30.830811 12.294733 
L 30.97045 12.793726 
L 31.249729 15.244253 
L 31.668648 21.998278 
L 32.366847 38.508756 
L 33.902883 76.503159 
L 34.60108 88.819353 
L 35.299278 97.527148 
L 35.997478 103.321672 
L 36.556036 106.411715 
L 37.114594 108.529072 
L 37.673152 109.962996 
L 38.37135 111.114776 
L 39.06955 111.815205 
L 39.907387 112.306475 
L 40.884864 112.615234 
L 42.420901 112.833988 
L 45.213693 112.950227 
L 50.799277 112.92846 
L 54.01099 112.732837 
L 55.686665 112.429956 
L 56.943421 111.976105 
L 57.920898 111.377863 
L 58.758739 110.594696 
L 59.456936 109.669212 
L 60.155134 108.408325 
L 60.853332 106.710872 
L 61.55153 104.458209 
L 62.249728 101.518032 
L 63.087565 96.88986 
L 63.925402 90.860203 
L 64.902882 81.869883 
L 66.019999 69.066294 
L 67.695674 46.481539 
L 69.231709 26.685955 
L 70.069546 18.551082 
L 70.628108 14.815928 
L 71.047026 13.062622 
L 71.326305 12.429826 
L 71.605584 12.24 
L 71.884864 12.498506 
L 72.164143 13.204216 
L 72.583061 15.083941 
L 73.14162 19.037283 
L 73.839817 26.014273 
L 74.817294 38.583883 
L 78.168647 84.456201 
L 79.146127 93.870086 
L 79.983965 99.98197 
L 80.821802 104.470223 
L 81.519996 107.171021 
L 82.218197 109.11714 
L 82.916392 110.478824 
L 83.614593 111.405309 
L 84.45243 112.113191 
L 85.290268 112.529928 
L 86.407384 112.819705 
L 88.083059 112.98253 
L 91.713694 113.037642 
L 147.150628 113.04 
L 159.02 113.04 
L 159.02 113.04 
" clip-path="url(#p2a8eed8483)" style="fill: none; stroke: #000000; stroke-width: 1.5; stroke-linecap: square"/>
   </g>
   <g id="line2d_2">
    <path d="M 19.52 108.752897 
L 21.614595 107.455974 
L 23.709189 105.887002 
L 25.803783 104.028757 
L 27.898378 101.875545 
L 30.132612 99.264434 
L 32.646126 95.981554 
L 35.857836 91.394105 
L 42.70018 81.493665 
L 44.934414 78.714277 
L 46.749728 76.786826 
L 48.425405 75.333335 
L 49.8218 74.394093 
L 51.218196 73.723992 
L 52.474955 73.363241 
L 53.731711 73.238891 
L 54.988467 73.353166 
L 56.245223 73.704019 
L 57.501979 74.28517 
L 58.898378 75.188344 
L 60.434413 76.471975 
L 62.110088 78.181145 
L 64.065042 80.516242 
L 66.438918 83.720779 
L 70.209189 89.245215 
L 74.817294 95.908718 
L 77.610089 99.542702 
L 79.983965 102.272621 
L 82.218197 104.504143 
L 84.312787 106.291568 
L 86.407384 107.792957 
L 88.501981 109.027798 
L 90.73622 110.081322 
L 93.110089 110.943404 
L 95.623608 111.6177 
L 98.556035 112.1626 
L 102.047028 112.566924 
L 106.5155 112.839466 
L 113.078563 112.99046 
L 127.46144 113.038695 
L 159.02 113.04 
L 159.02 113.04 
" clip-path="url(#p2a8eed8483)" style="fill: none; stroke: #377eb8; stroke-width: 1.5; stroke-linecap: square"/>
   </g>
   <g id="patch_3">
    <path d="M 19.52 118.08 
L 19.52 7.2 
" style="fill: none; stroke: #000000; stroke-width: 1.5; stroke-linejoin: miter; stroke-linecap: square"/>
   </g>
   <g id="patch_4">
    <path d="M 19.52 118.08 
L 159.02 118.08 
" style="fill: none; stroke: #000000; stroke-width: 1.5; stroke-linejoin: miter; stroke-linecap: square"/>
   </g>
  </g>
 </g>
 <defs>
  <clipPath id="p2a8eed8483">
   <rect x="19.52" y="7.2" width="139.5" height="110.88"/>
  </clipPath>
 </defs>
</svg>
